<?xml version="1.0" encoding="utf-8"?>
<svg xmlns="http://www.w3.org/2000/svg" xmlns:xlink="http://www.w3.org/1999/xlink"> 
	<defs>
		<style>
			svg .icon { display: none }
			svg .icon:target { display: inline; } 
		</style>
	</defs>

	<svg viewBox="0 0 20 20"><g class="icon" id="icon-a-lowercase"><path d="M13.887 16.761q0.62 0 1.183-0.028t0.901-0.085v-3.183q-0.254-0.056-0.761-0.113t-0.93-0.056q-0.592 0-1.113 0.070t-0.915 0.268-0.62 0.535-0.225 0.845q0 0.986 0.662 1.366t1.817 0.38zM13.549 4.479q1.859 0 3.099 0.423t1.986 1.211 1.056 1.915 0.31 2.507v8.732q-0.901 0.197-2.507 0.465t-3.887 0.268q-1.437 0-2.606-0.254t-2.014-0.831-1.296-1.507-0.451-2.282q0-1.296 0.521-2.197t1.394-1.437 2-0.775 2.338-0.239q0.817 0 1.451 0.070t1.028 0.183v-0.394q0-1.070-0.648-1.718t-2.254-0.648q-1.070 0-2.113 0.155t-1.803 0.437l-0.535-3.38q0.366-0.113 0.915-0.239t1.197-0.225 1.366-0.169 1.451-0.070z"/></g></svg>
	<svg viewBox="0 0 20 20"><g class="icon" id="icon-a-uppercase"><path d="M15.042 20q-0.31-1.014-0.69-2.085t-0.746-2.141h-7.606q-0.366 1.070-0.746 2.141t-0.69 2.085h-4.563q1.099-3.155 2.085-5.831t1.93-5.042 1.859-4.493 1.901-4.155h4.197q0.958 2.028 1.887 4.155t1.873 4.493 1.93 5.042 2.085 5.831zM9.775 4.901q-0.141 0.423-0.423 1.155t-0.648 1.69-0.803 2.113-0.887 2.423h5.549q-0.451-1.268-0.873-2.423t-0.803-2.113-0.662-1.69-0.451-1.155z"/></g></svg>
	<svg viewBox="0 0 20 20"><g class="icon" id="icon-accessibility"><path d="M8.125 1.875c0-1.036 0.839-1.875 1.875-1.875s1.875 0.839 1.875 1.875c0 1.036-0.839 1.875-1.875 1.875s-1.875-0.839-1.875-1.875z"/><path d="M12.5 6.25l6.437-2.777-0.464-1.161-7.848 2.687h-1.25l-7.848-2.687-0.464 1.161 6.437 2.777v5l-2.564 8.292 1.169 0.443 3.627-8.111h0.536l3.627 8.111 1.169-0.443-2.564-8.292z"/></g></svg>
	<svg viewBox="0 0 20 20"><g class="icon" id="icon-blocked"><path d="M17.071 2.929c-1.889-1.889-4.4-2.929-7.071-2.929s-5.182 1.040-7.071 2.929c-1.889 1.889-2.929 4.4-2.929 7.071s1.040 5.182 2.929 7.071c1.889 1.889 4.4 2.929 7.071 2.929s5.182-1.040 7.071-2.929c1.889-1.889 2.929-4.4 2.929-7.071s-1.040-5.182-2.929-7.071zM17.5 10c0 1.617-0.515 3.117-1.389 4.343l-10.454-10.454c1.226-0.874 2.726-1.389 4.343-1.389 4.136 0 7.5 3.364 7.5 7.5zM2.5 10c0-1.617 0.515-3.117 1.389-4.343l10.454 10.454c-1.226 0.874-2.726 1.389-4.343 1.389-4.136 0-7.5-3.364-7.5-7.5z"/></g></svg>
	<svg viewBox="0 0 20 20"><g class="icon" id="icon-brightness-contrast"><path d="M10 5c-2.761 0-5 2.239-5 5s2.239 5 5 5 5-2.239 5-5-2.239-5-5-5zM10 13.125v-6.25c1.723 0 3.125 1.402 3.125 3.125s-1.402 3.125-3.125 3.125zM10 16.25c0.69 0 1.25 0.56 1.25 1.25v1.25c0 0.69-0.56 1.25-1.25 1.25s-1.25-0.56-1.25-1.25v-1.25c0-0.69 0.56-1.25 1.25-1.25zM10 3.75c-0.69 0-1.25-0.56-1.25-1.25v-1.25c0-0.69 0.56-1.25 1.25-1.25s1.25 0.56 1.25 1.25v1.25c0 0.69-0.56 1.25-1.25 1.25zM18.75 8.75c0.69 0 1.25 0.56 1.25 1.25s-0.56 1.25-1.25 1.25h-1.25c-0.69 0-1.25-0.56-1.25-1.25s0.56-1.25 1.25-1.25h1.25zM3.75 10c0 0.69-0.56 1.25-1.25 1.25h-1.25c-0.69 0-1.25-0.56-1.25-1.25s0.56-1.25 1.25-1.25h1.25c0.69 0 1.25 0.56 1.25 1.25zM16.187 14.419l0.884 0.884c0.488 0.488 0.488 1.28 0 1.768s-1.28 0.488-1.768 0l-0.884-0.884c-0.488-0.488-0.488-1.28 0-1.768s1.28-0.488 1.768 0zM3.813 5.581l-0.884-0.884c-0.488-0.488-0.488-1.28 0-1.768s1.28-0.488 1.768 0l0.884 0.884c0.488 0.488 0.488 1.28 0 1.768s-1.28 0.488-1.768 0zM16.187 5.581c-0.488 0.488-1.28 0.488-1.768 0s-0.488-1.28 0-1.768l0.884-0.884c0.488-0.488 1.28-0.488 1.768 0s0.488 1.28 0 1.768l-0.884 0.884zM3.813 14.419c0.488-0.488 1.28-0.488 1.768 0s0.488 1.28 0 1.768l-0.884 0.884c-0.488 0.488-1.28 0.488-1.768 0s-0.488-1.28 0-1.768l0.884-0.884z"/></g></svg>
	<svg viewBox="0 0 23 20"><g class="icon" id="icon-bubbles"><path d="M9.375 0v0c5.178 0 9.375 3.397 9.375 7.587s-4.197 7.587-9.375 7.587c-0.497 0-0.985-0.032-1.462-0.092-2.014 2.006-4.339 2.365-6.663 2.418v-0.491c1.255-0.612 2.266-1.728 2.266-3.003 0-0.178-0.014-0.352-0.040-0.523-2.12-1.391-3.476-3.515-3.476-5.896 0-4.19 4.197-7.587 9.375-7.587zM19.453 17.006c0 1.093 0.709 2.049 1.797 2.574v0.421c-2.014-0.045-3.863-0.354-5.608-2.073-0.413 0.052-0.836 0.079-1.267 0.079-1.865 0-3.582-0.503-4.953-1.348 2.826-0.010 5.493-0.915 7.516-2.552 1.020-0.825 1.824-1.793 2.391-2.878 0.601-1.15 0.906-2.375 0.906-3.641 0-0.204-0.009-0.407-0.025-0.609 1.417 1.171 2.29 2.766 2.29 4.525 0 2.041-1.175 3.862-3.012 5.054-0.022 0.146-0.034 0.296-0.034 0.449z"/></g></svg>
	<svg viewBox="0 0 20 20"><g class="icon" id="icon-contrast"><path d="M10 0c-5.523 0-10 4.477-10 10s4.477 10 10 10 10-4.477 10-10-4.477-10-10-10zM2.5 10c0-4.142 3.358-7.5 7.5-7.5v15c-4.142 0-7.5-3.358-7.5-7.5z"/></g></svg>
	<svg viewBox="0 0 20 20"><g class="icon" id="icon-danger"><path d="M11.25 14.25c0 0.69-0.56 1.25-1.25 1.25s-1.25-0.56-1.25-1.25c0-0.69 0.56-1.25 1.25-1.25s1.25 0.56 1.25 1.25z"/><path d="M10 11.75c-0.69 0-1.25-0.56-1.25-1.25v-3.75c0-0.69 0.56-1.25 1.25-1.25s1.25 0.56 1.25 1.25v3.75c0 0.69-0.56 1.25-1.25 1.25z"/><path d="M19.767 9.437c0.144 0.144 0.233 0.343 0.233 0.562s-0.089 0.418-0.233 0.562l-9.206 9.206c-0.144 0.144-0.343 0.233-0.562 0.233s-0.418-0.089-0.562-0.233l-9.205-9.205c-0.144-0.144-0.233-0.343-0.233-0.562s0.089-0.418 0.233-0.562l9.206-9.206c0.144-0.144 0.343-0.233 0.562-0.233s0.418 0.089 0.562 0.233v0zM18.081 9.999l-8.081-8.081-8.082 8.082 8.081 8.081z"/></g></svg>
	<svg viewBox="0 0 20 20"><g class="icon" id="icon-discord"><path d="M16.852 0c1.172 0 2.117 0.948 2.172 2.063v17.938l-2.231-1.894-1.225-1.115-1.337-1.165 0.558 1.838h-11.698c-1.168 0-2.117-0.888-2.117-2.063v-13.533c0-1.115 0.95-2.064 2.121-2.064l13.756-0.003zM11.753 4.736h-0.025l-0.168 0.167c1.727 0.5 2.563 1.281 2.563 1.281-1.113-0.557-2.117-0.835-3.12-0.947-0.725-0.112-1.45-0.053-2.063 0h-0.167c-0.392 0-1.225 0.167-2.342 0.612-0.389 0.169-0.612 0.28-0.612 0.28s0.835-0.835 2.675-1.281l-0.112-0.112s-1.393-0.053-2.897 1.058c0 0-1.504 2.62-1.504 5.85 0 0 0.833 1.45 3.119 1.505 0 0 0.333-0.444 0.671-0.835-1.283-0.39-1.783-1.17-1.783-1.17s0.112 0.055 0.279 0.167h0.050c0.025 0 0.037 0.012 0.050 0.025v0.005c0.013 0.013 0.025 0.025 0.050 0.025 0.275 0.113 0.55 0.225 0.775 0.333 0.388 0.168 0.887 0.336 1.5 0.447 0.775 0.112 1.663 0.167 2.675 0 0.5-0.112 1-0.223 1.5-0.446 0.325-0.167 0.725-0.333 1.164-0.614 0 0-0.5 0.78-1.838 1.17 0.275 0.388 0.662 0.833 0.662 0.833 2.287-0.050 3.175-1.5 3.225-1.438 0-3.225-1.512-5.85-1.512-5.85-1.362-1.012-2.637-1.050-2.862-1.050l0.047-0.017zM11.893 8.413c0.586 0 1.058 0.5 1.058 1.112 0 0.617-0.475 1.117-1.058 1.117s-1.058-0.5-1.058-1.112c0.002-0.617 0.477-1.115 1.058-1.115zM8.107 8.413c0.583 0 1.055 0.5 1.055 1.112 0 0.617-0.475 1.117-1.058 1.117s-1.058-0.5-1.058-1.112c0-0.617 0.475-1.115 1.058-1.115z"/></g></svg>
	<svg viewBox="0 0 20 20"><g class="icon" id="icon-download"><path d="M17.5 10h-3.125l-4.375 4.375-4.375-4.375h-3.125l-2.5 5v1.25h20v-1.25l-2.5-5zM0 17.5h20v1.25h-20v-1.25zM11.25 6.25v-5h-2.5v5h-4.375l5.625 5.625 5.625-5.625h-4.375z"/></g></svg>
	<svg viewBox="0 0 20 20"><g class="icon" id="icon-earth"><path d="M10 0c-5.523 0-10 4.477-10 10s4.477 10 10 10 10-4.477 10-10-4.477-10-10-10zM10 18.75c-1.23 0-2.4-0.254-3.462-0.712l4.554-5.123c0.102-0.114 0.158-0.262 0.158-0.415v-1.875c0-0.345-0.28-0.625-0.625-0.625-2.207 0-4.535-2.294-4.558-2.317-0.117-0.117-0.276-0.183-0.442-0.183h-2.5c-0.345 0-0.625 0.28-0.625 0.625v3.75c0 0.237 0.134 0.453 0.346 0.559l2.154 1.077v3.67c-2.267-1.581-3.75-4.208-3.75-7.181 0-1.342 0.303-2.613 0.843-3.75h2.282c0.166 0 0.325-0.066 0.442-0.183l2.5-2.5c0.117-0.117 0.183-0.276 0.183-0.442v-1.512c0.792-0.236 1.631-0.363 2.5-0.363 1.375 0 2.676 0.318 3.834 0.883-0.081 0.068-0.16 0.14-0.235 0.216-0.708 0.708-1.098 1.65-1.098 2.652s0.39 1.943 1.098 2.652c0.712 0.712 1.664 1.099 2.649 1.099 0.062 0 0.124-0.002 0.186-0.005 0.27 1.012 0.757 3.646-0.164 7.272-0.009 0.034-0.014 0.068-0.016 0.102-1.588 1.623-3.803 2.63-6.253 2.63z"/></g></svg>
	<svg viewBox="0 0 20 20"><g class="icon" id="icon-embed"><path d="M11.25 14.375l1.875 1.875 6.25-6.25-6.25-6.25-1.875 1.875 4.375 4.375z"/><path d="M8.75 5.625l-1.875-1.875-6.25 6.25 6.25 6.25 1.875-1.875-4.375-4.375z"/></g></svg>
	<svg viewBox="0 0 20 20"><g class="icon" id="icon-enlarge"><path d="M20 0h-8.125l3.125 3.125-3.75 3.75 1.875 1.875 3.75-3.75 3.125 3.125z"/><path d="M20 20v-8.125l-3.125 3.125-3.75-3.75-1.875 1.875 3.75 3.75-3.125 3.125z"/><path d="M0 20h8.125l-3.125-3.125 3.75-3.75-1.875-1.875-3.75 3.75-3.125-3.125z"/><path d="M0 0v8.125l3.125-3.125 3.75 3.75 1.875-1.875-3.75-3.75 3.125-3.125z"/></g></svg>
	<svg viewBox="0 0 20 20"><g class="icon" id="icon-github"><path d="M10 0.247c-5.522 0-10 4.477-10 10 0 4.418 2.865 8.167 6.839 9.489 0.5 0.093 0.683-0.217 0.683-0.481 0-0.238-0.009-1.026-0.014-1.862-2.782 0.605-3.369-1.18-3.369-1.18-0.455-1.156-1.11-1.463-1.11-1.463-0.907-0.621 0.069-0.608 0.069-0.608 1.004 0.071 1.533 1.031 1.533 1.031 0.892 1.529 2.339 1.087 2.91 0.831 0.090-0.646 0.349-1.087 0.635-1.337-2.221-0.253-4.556-1.11-4.556-4.942 0-1.092 0.391-1.984 1.030-2.684-0.104-0.252-0.446-1.269 0.097-2.646 0 0 0.84-0.269 2.751 1.025 0.798-0.222 1.653-0.333 2.503-0.337 0.85 0.004 1.706 0.115 2.505 0.337 1.909-1.294 2.747-1.025 2.747-1.025 0.544 1.378 0.202 2.395 0.098 2.646 0.641 0.7 1.029 1.592 1.029 2.684 0 3.841-2.339 4.687-4.566 4.934 0.359 0.31 0.678 0.919 0.678 1.852 0 1.338-0.012 2.415-0.012 2.744 0 0.266 0.18 0.578 0.687 0.48 3.971-1.324 6.833-5.071 6.833-9.488 0-5.523-4.477-10-10-10z"/></g></svg>
	<svg viewBox="0 0 20 20"><g class="icon" id="icon-hashtag"><path d="M11.060 11.429l0.714-2.857h-2.835l-0.714 2.857h2.835zM19.632 5.804l-0.625 2.5c-0.045 0.156-0.179 0.268-0.346 0.268h-3.65l-0.714 2.857h3.471c0.112 0 0.212 0.056 0.279 0.134 0.067 0.089 0.1 0.201 0.067 0.313l-0.625 2.5c-0.033 0.156-0.179 0.268-0.346 0.268h-3.65l-0.904 3.661c-0.045 0.156-0.19 0.268-0.346 0.268h-2.5c-0.112 0-0.223-0.056-0.29-0.134-0.067-0.089-0.089-0.201-0.067-0.313l0.871-3.482h-2.835l-0.904 3.661c-0.045 0.156-0.19 0.268-0.346 0.268h-2.511c-0.1 0-0.212-0.056-0.279-0.134-0.067-0.089-0.089-0.201-0.067-0.313l0.871-3.482h-3.471c-0.112 0-0.212-0.056-0.279-0.134-0.067-0.089-0.089-0.201-0.067-0.313l0.625-2.5c0.045-0.156 0.179-0.268 0.346-0.268h3.65l0.714-2.857h-3.471c-0.112 0-0.212-0.056-0.279-0.134-0.067-0.089-0.1-0.201-0.067-0.313l0.625-2.5c0.033-0.156 0.179-0.268 0.346-0.268h3.65l0.904-3.661c0.045-0.156 0.19-0.268 0.357-0.268h2.5c0.1 0 0.212 0.056 0.279 0.134 0.067 0.089 0.089 0.201 0.067 0.313l-0.871 3.482h2.835l0.904-3.661c0.045-0.156 0.19-0.268 0.357-0.268h2.5c0.1 0 0.212 0.056 0.279 0.134 0.067 0.089 0.089 0.201 0.067 0.313l-0.871 3.482h3.471c0.112 0 0.212 0.056 0.279 0.134 0.067 0.089 0.089 0.201 0.067 0.313z"/></g></svg>
	<svg viewBox="0 0 20 20"><g class="icon" id="icon-info"><path d="M8.75 5.938c0-0.516 0.422-0.938 0.938-0.938h0.625c0.516 0 0.938 0.422 0.938 0.938v0.625c0 0.516-0.422 0.938-0.938 0.938h-0.625c-0.516 0-0.938-0.422-0.938-0.938v-0.625z"/><path d="M12.5 15h-5v-1.25h1.25v-3.75h-1.25v-1.25h3.75v5h1.25z"/><path d="M10 0c-5.523 0-10 4.477-10 10s4.477 10 10 10 10-4.477 10-10-4.477-10-10-10zM10 18.125c-4.487 0-8.125-3.638-8.125-8.125s3.638-8.125 8.125-8.125 8.125 3.638 8.125 8.125-3.638 8.125-8.125 8.125z"/></g></svg>
	<svg viewBox="0 0 20 20"><g class="icon" id="icon-lightbulb"><path d="M7 13.33c-2.384-1.15-4-3.549-4-6.325 0-3.866 3.134-7 7-7s7 3.134 7 7c0 2.776-1.616 5.174-3.958 6.306l-0.042 0.018v2.67h-6v-2.67zM7 17h6v1.5c0 0.83-0.67 1.5-1.5 1.5h-3c-0.828 0-1.5-0.672-1.5-1.5v0-1.5zM9 11.9v2.1h2v-2.1c2.299-0.481 4-2.492 4-4.899 0-2.761-2.239-5-5-5s-5 2.239-5 5c0 2.407 1.701 4.417 3.967 4.893l0.033 0.006z"/></g></svg>
	<svg viewBox="0 0 20 20"><g class="icon" id="icon-link"><path d="M8.598 12.417c-0.26 0-0.52-0.099-0.718-0.297-1.858-1.858-1.858-4.882 0-6.74l3.75-3.75c0.9-0.9 2.097-1.396 3.37-1.396s2.47 0.496 3.37 1.396c1.858 1.858 1.858 4.882 0 6.74l-1.714 1.714c-0.397 0.397-1.040 0.397-1.436 0s-0.397-1.040 0-1.436l1.714-1.714c1.066-1.066 1.066-2.801 0-3.867-0.516-0.516-1.203-0.801-1.934-0.801s-1.417 0.284-1.934 0.801l-3.75 3.75c-1.066 1.066-1.066 2.801 0 3.867 0.397 0.397 0.397 1.040 0 1.436-0.198 0.198-0.458 0.297-0.718 0.297z"/><path d="M5 19.766c-1.273 0-2.47-0.496-3.37-1.396-1.858-1.858-1.858-4.882 0-6.74l1.714-1.714c0.397-0.397 1.040-0.397 1.436 0s0.397 1.040 0 1.436l-1.714 1.714c-1.066 1.066-1.066 2.801 0 3.867 0.516 0.516 1.203 0.801 1.933 0.801s1.417-0.284 1.934-0.801l3.75-3.75c1.066-1.066 1.066-2.801 0-3.867-0.397-0.397-0.397-1.040 0-1.436s1.040-0.397 1.436 0c1.858 1.858 1.858 4.881 0 6.74l-3.75 3.75c-0.9 0.9-2.097 1.396-3.37 1.396z"/></g></svg>
	<svg viewBox="0 0 17 20"><g class="icon" id="icon-minus-circle"><path d="M13.571 10.714v-1.429c0-0.391-0.324-0.714-0.714-0.714h-8.571c-0.391 0-0.714 0.324-0.714 0.714v1.429c0 0.391 0.324 0.714 0.714 0.714h8.571c0.391 0 0.714-0.324 0.714-0.714zM17.143 10c0 4.732-3.839 8.571-8.571 8.571s-8.571-3.839-8.571-8.571 3.839-8.571 8.571-8.571 8.571 3.839 8.571 8.571z"/></g></svg>
	<svg viewBox="0 0 20 20"><g class="icon" id="icon-minus"><path d="M0 8.125v3.75c0 0.345 0.28 0.625 0.625 0.625h18.75c0.345 0 0.625-0.28 0.625-0.625v-3.75c0-0.345-0.28-0.625-0.625-0.625h-18.75c-0.345 0-0.625 0.28-0.625 0.625z"/></g></svg>
	<svg viewBox="0 0 20 20"><g class="icon" id="icon-moon-fill"><path d="M15.396 13.865c-5.117 0-9.262-4.148-9.262-9.262 0-1.684 0.483-3.243 1.269-4.602-4.265 1.23-7.402 5.117-7.402 9.777 0 5.644 4.575 10.222 10.22 10.222 4.661 0 8.55-3.139 9.78-7.402-1.363 0.784-2.92 1.267-4.604 1.267z"/></g></svg>
	<svg viewBox="0 0 20 20"><g class="icon" id="icon-moon-stroke"><path d="M3.684 5.717c0.53 5.599 5 10.068 10.598 10.596-1.194 0.757-2.595 1.186-4.063 1.186-4.258 0.001-7.72-3.461-7.72-7.721 0-1.467 0.43-2.867 1.184-4.061zM7.402 0c-4.265 1.231-7.402 5.118-7.402 9.779 0 5.646 4.575 10.221 10.22 10.221 4.661 0 8.55-3.139 9.78-7.402-1.363 0.786-2.92 1.269-4.604 1.269-5.117 0-9.262-4.149-9.262-9.264-0.001-1.684 0.483-3.242 1.269-4.603v0z"/></g></svg>
	<svg viewBox="0 0 20 20"><g class="icon" id="icon-newtab"><path d="M0 3.75v16.25h16.25v-10.313l-2.5 2.5v5.313h-11.25v-11.25h5.313l2.5-2.5z"/><path d="M8.125 0v2.5h7.608l-10.054 10.054 1.768 1.767 10.054-10.054v7.608h2.499v-11.875h-11.875z"/></g></svg>
	<svg viewBox="0 0 20 20"><g class="icon" id="icon-notification"><path d="M10 1.875c-2.17 0-4.211 0.845-5.745 2.38s-2.38 3.575-2.38 5.745c0 2.17 0.845 4.211 2.38 5.745s3.575 2.38 5.745 2.38c2.17 0 4.211-0.845 5.745-2.38s2.38-3.575 2.38-5.745c0-2.17-0.845-4.211-2.38-5.745s-3.575-2.38-5.745-2.38zM10 0v0c5.523 0 10 4.477 10 10s-4.477 10-10 10c-5.523 0-10-4.477-10-10s4.477-10 10-10zM8.75 13.75h2.5v2.5h-2.5zM8.75 3.75h2.5v7.5h-2.5z"/></g></svg>
	<svg viewBox="0 0 17 20"><g class="icon" id="icon-plus-circle"><path d="M13.571 10.714v-1.429c0-0.391-0.324-0.714-0.714-0.714h-2.857v-2.857c0-0.391-0.324-0.714-0.714-0.714h-1.429c-0.391 0-0.714 0.324-0.714 0.714v2.857h-2.857c-0.391 0-0.714 0.324-0.714 0.714v1.429c0 0.391 0.324 0.714 0.714 0.714h2.857v2.857c0 0.391 0.324 0.714 0.714 0.714h1.429c0.391 0 0.714-0.324 0.714-0.714v-2.857h2.857c0.391 0 0.714-0.324 0.714-0.714zM17.143 10c0 4.732-3.839 8.571-8.571 8.571s-8.571-3.839-8.571-8.571 3.839-8.571 8.571-8.571 8.571 3.839 8.571 8.571z"/></g></svg>
	<svg viewBox="0 0 20 20"><g class="icon" id="icon-plus"><path d="M19.375 7.5h-6.875v-6.875c0-0.345-0.28-0.625-0.625-0.625h-3.75c-0.345 0-0.625 0.28-0.625 0.625v6.875h-6.875c-0.345 0-0.625 0.28-0.625 0.625v3.75c0 0.345 0.28 0.625 0.625 0.625h6.875v6.875c0 0.345 0.28 0.625 0.625 0.625h3.75c0.345 0 0.625-0.28 0.625-0.625v-6.875h6.875c0.345 0 0.625-0.28 0.625-0.625v-3.75c0-0.345-0.28-0.625-0.625-0.625z"/></g></svg>
	<svg viewBox="0 0 20 20"><g class="icon" id="icon-power"><path d="M7.5 0l-7.5 10h7.5l-5 10 17.5-12.5h-10l7.5-7.5z"/></g></svg>
	<svg viewBox="0 0 20 20"><g class="icon" id="icon-quotes-left"><path d="M4.395 8.75c2.416 0 4.375 1.959 4.375 4.375s-1.959 4.375-4.375 4.375-4.375-1.959-4.375-4.375l-0.020-0.625c0-4.832 3.917-8.75 8.75-8.75v2.5c-1.669 0-3.239 0.65-4.419 1.831-0.227 0.227-0.435 0.469-0.622 0.723 0.223-0.035 0.452-0.054 0.686-0.054zM15.645 8.75c2.416 0 4.375 1.959 4.375 4.375s-1.959 4.375-4.375 4.375-4.375-1.959-4.375-4.375l-0.020-0.625c0-4.832 3.918-8.75 8.75-8.75v2.5c-1.669 0-3.239 0.65-4.419 1.831-0.227 0.227-0.435 0.469-0.622 0.723 0.223-0.035 0.452-0.054 0.686-0.054z"/></g></svg>
	<svg viewBox="0 0 20 20"><g class="icon" id="icon-quotes-right"><path d="M15.625 12.5c-2.416 0-4.375-1.959-4.375-4.375s1.959-4.375 4.375-4.375 4.375 1.959 4.375 4.375l0.020 0.625c0 4.832-3.918 8.75-8.75 8.75v-2.5c1.669 0 3.239-0.65 4.419-1.831 0.227-0.227 0.435-0.469 0.622-0.723-0.223 0.035-0.452 0.054-0.686 0.054zM4.375 12.5c-2.416 0-4.375-1.959-4.375-4.375s1.959-4.375 4.375-4.375 4.375 1.959 4.375 4.375l0.020 0.625c0 4.832-3.917 8.75-8.75 8.75v-2.5c1.669 0 3.239-0.65 4.419-1.831 0.227-0.227 0.435-0.469 0.622-0.723-0.223 0.035-0.452 0.054-0.686 0.054z"/></g></svg>
	<svg viewBox="0 0 20 20"><g class="icon" id="icon-reddit"><path d="M5 12.5c0-0.69 0.56-1.25 1.25-1.25s1.25 0.56 1.25 1.25c0 0.69-0.56 1.25-1.25 1.25s-1.25-0.56-1.25-1.25zM12.5 12.5c0-0.69 0.56-1.25 1.25-1.25s1.25 0.56 1.25 1.25c0 0.69-0.56 1.25-1.25 1.25s-1.25-0.56-1.25-1.25zM12.561 15.171c0.322-0.254 0.789-0.198 1.042 0.124s0.198 0.789-0.124 1.042c-0.896 0.706-2.262 1.163-3.479 1.163s-2.583-0.456-3.479-1.163c-0.322-0.254-0.377-0.72-0.124-1.042s0.72-0.377 1.042-0.124c0.516 0.407 1.538 0.844 2.561 0.844s2.045-0.438 2.561-0.844zM20 10c0-1.381-1.119-2.5-2.5-2.5-0.94 0-1.758 0.519-2.185 1.286-1.285-0.703-2.851-1.157-4.556-1.262l1.492-3.35 2.855 0.824c0.257 0.729 0.952 1.252 1.769 1.252 1.036 0 1.875-0.839 1.875-1.875s-0.839-1.875-1.875-1.875c-0.714 0-1.335 0.399-1.651 0.987l-3.182-0.918c-0.356-0.103-0.733 0.073-0.884 0.411l-2.027 4.551c-1.663 0.117-3.189 0.567-4.446 1.255-0.427-0.767-1.245-1.285-2.185-1.285-1.381 0-2.5 1.119-2.5 2.5 0 1.022 0.613 1.899 1.492 2.287-0.158 0.469-0.242 0.959-0.242 1.463 0 3.452 3.917 6.25 8.75 6.25s8.75-2.798 8.75-6.25c0-0.504-0.084-0.993-0.242-1.463 0.878-0.388 1.492-1.266 1.492-2.287zM16.875 3.672c0.388 0 0.703 0.315 0.703 0.703s-0.315 0.703-0.703 0.703-0.703-0.315-0.703-0.703 0.315-0.703 0.703-0.703zM1.25 10c0-0.689 0.561-1.25 1.25-1.25 0.498 0 0.929 0.293 1.13 0.716-0.653 0.495-1.195 1.067-1.595 1.694-0.459-0.185-0.785-0.635-0.785-1.16zM10 18.516c-4.013 0-7.266-2.134-7.266-4.766s3.253-4.766 7.266-4.766c4.013 0 7.266 2.134 7.266 4.766s-3.253 4.766-7.266 4.766zM17.965 11.16c-0.4-0.627-0.942-1.199-1.595-1.694 0.201-0.423 0.632-0.716 1.13-0.716 0.689 0 1.25 0.561 1.25 1.25 0 0.525-0.325 0.975-0.785 1.16z"/></g></svg>
	<svg viewBox="0 0 20 20"><g class="icon" id="icon-rss"><path d="M2.662 14.667c-1.469 0-2.662 1.198-2.662 2.658 0 1.468 1.193 2.652 2.662 2.652 1.474 0 2.666-1.185 2.666-2.652-0-1.46-1.192-2.658-2.666-2.658zM0.003 6.796v3.833c2.496 0 4.843 0.976 6.611 2.744 1.765 1.764 2.74 4.122 2.74 6.627h3.85c-0-7.282-5.923-13.204-13.2-13.204zM0.008 0v3.835c8.902 0 16.148 7.253 16.148 16.165h3.845c0-11.025-8.97-20-19.992-20z"/></g></svg>
	<svg viewBox="0 0 19 20"><g class="icon" id="icon-search"><path d="M12.857 9.286c0-2.757-2.243-5-5-5s-5 2.243-5 5 2.243 5 5 5 5-2.243 5-5zM18.571 18.571c0 0.781-0.647 1.429-1.429 1.429-0.379 0-0.748-0.156-1.004-0.424l-3.828-3.817c-1.306 0.904-2.868 1.384-4.453 1.384-4.342 0-7.857-3.516-7.857-7.857s3.516-7.857 7.857-7.857 7.857 3.516 7.857 7.857c0 1.585-0.48 3.147-1.384 4.453l3.828 3.828c0.257 0.257 0.413 0.625 0.413 1.004z"/></g></svg>
	<svg viewBox="0 0 20 20"><g class="icon" id="icon-shrink"><path d="M11.25 8.75h8.125l-3.125-3.125 3.75-3.75-1.875-1.875-3.75 3.75-3.125-3.125z"/><path d="M11.25 11.25v8.125l3.125-3.125 3.75 3.75 1.875-1.875-3.75-3.75 3.125-3.125z"/><path d="M8.75 11.25h-8.125l3.125 3.125-3.75 3.75 1.875 1.875 3.75-3.75 3.125 3.125z"/><path d="M8.75 8.75v-8.125l-3.125 3.125-3.75-3.75-1.875 1.875 3.75 3.75-3.125 3.125z"/></g></svg>
	<svg viewBox="0 0 20 20"><g class="icon" id="icon-stackoverflow"><path d="M20 12.5v7.5h-20v-7.5h2.5v5h15v-5zM3.75 13.75h12.5v2.5h-12.5zM4.046 11.044l0.541-2.441 12.204 2.705-0.541 2.441zM5.462 6.027l1.056-2.266 11.329 5.282-1.056 2.266zM19.37 7.060l-1.522 1.983-9.917-7.61 1.1-1.434h1.138z"/></g></svg>
	<svg viewBox="0 0 20 20"><g class="icon" id="icon-star-empty"><path d="M20 7.755l-6.91-1.004-3.090-6.261-3.090 6.261-6.91 1.004 5 4.874-1.18 6.882 6.18-3.249 6.18 3.249-1.18-6.882 5-4.874zM10 14.717l-4.364 2.295 0.834-4.86-3.531-3.442 4.88-0.709 2.182-4.422 2.182 4.422 4.88 0.709-3.531 3.442 0.834 4.86-4.364-2.295z"/></g></svg>
	<svg viewBox="0 0 20 20"><g class="icon" id="icon-sun"><path d="M10 16.25c0.69 0 1.25 0.56 1.25 1.25v1.25c0 0.69-0.56 1.25-1.25 1.25s-1.25-0.56-1.25-1.25v-1.25c0-0.69 0.56-1.25 1.25-1.25zM10 3.75c-0.69 0-1.25-0.56-1.25-1.25v-1.25c0-0.69 0.56-1.25 1.25-1.25s1.25 0.56 1.25 1.25v1.25c0 0.69-0.56 1.25-1.25 1.25zM18.75 8.75c0.69 0 1.25 0.56 1.25 1.25s-0.56 1.25-1.25 1.25h-1.25c-0.69 0-1.25-0.56-1.25-1.25s0.56-1.25 1.25-1.25h1.25zM3.75 10c0 0.69-0.56 1.25-1.25 1.25h-1.25c-0.69 0-1.25-0.56-1.25-1.25s0.56-1.25 1.25-1.25h1.25c0.69 0 1.25 0.56 1.25 1.25zM16.187 14.419l0.884 0.884c0.488 0.488 0.488 1.28 0 1.768s-1.28 0.488-1.768 0l-0.884-0.884c-0.488-0.488-0.488-1.28 0-1.768s1.28-0.488 1.768 0zM3.813 5.581l-0.884-0.884c-0.488-0.488-0.488-1.28 0-1.768s1.28-0.488 1.768 0l0.884 0.884c0.488 0.488 0.488 1.28 0 1.768s-1.28 0.488-1.768 0zM16.187 5.581c-0.488 0.488-1.28 0.488-1.768 0s-0.488-1.28 0-1.768l0.884-0.884c0.488-0.488 1.28-0.488 1.768 0s0.488 1.28 0 1.768l-0.884 0.884zM3.813 14.419c0.488-0.488 1.28-0.488 1.768 0s0.488 1.28 0 1.768l-0.884 0.884c-0.488 0.488-1.28 0.488-1.768 0s-0.488-1.28 0-1.768l0.884-0.884z"/><path d="M10 5c-2.761 0-5 2.239-5 5s2.239 5 5 5c2.761 0 5-2.239 5-5s-2.239-5-5-5zM10 13.125c-1.726 0-3.125-1.399-3.125-3.125s1.399-3.125 3.125-3.125 3.125 1.399 3.125 3.125-1.399 3.125-3.125 3.125z"/></g></svg>
	<svg viewBox="0 0 20 20"><g class="icon" id="icon-upload"><path d="M0 17.5h20v1.25h-20zM20 15v1.25h-20v-1.25l2.5-5h5v2.5h5v-2.5h5zM4.375 6.25l5.625-5.625 5.625 5.625h-4.375v5h-2.5v-5z"/></g></svg>
	<svg viewBox="0 0 20 20"><g class="icon" id="icon-warning"><path d="M10 1.812l8.381 16.704h-16.762l8.381-16.704zM10 0c-0.431 0-0.862 0.291-1.189 0.872l-8.537 17.014c-0.654 1.163-0.098 2.114 1.236 2.114h16.979c1.334 0 1.89-0.951 1.236-2.114h0l-8.537-17.014c-0.327-0.581-0.758-0.872-1.189-0.872v0z"/><path d="M11.25 16.25c0 0.69-0.56 1.25-1.25 1.25s-1.25-0.56-1.25-1.25c0-0.69 0.56-1.25 1.25-1.25s1.25 0.56 1.25 1.25z"/><path d="M10 13.75c-0.69 0-1.25-0.56-1.25-1.25v-3.75c0-0.69 0.56-1.25 1.25-1.25s1.25 0.56 1.25 1.25v3.75c0 0.69-0.56 1.25-1.25 1.25z"/></g></svg>
	<svg viewBox="0 0 20 20"><g class="icon" id="icon-windows"><path d="M8.051 9.998c-0.932-0.479-1.838-0.722-2.693-0.722-0.116 0-0.233 0.004-0.351 0.014-1.091 0.090-2.088 0.378-2.729 0.602-0.17 0.062-0.344 0.128-0.524 0.201l-1.754 6.082c1.205-0.446 2.271-0.663 3.247-0.663 1.579 0 2.725 0.59 3.672 1.197 0.448-1.522 1.524-5.197 1.845-6.295-0.233-0.142-0.47-0.285-0.713-0.416zM10.319 11.544l-1.767 6.136c0.524 0.3 2.287 1.251 3.637 1.251 1.090 0 2.31-0.279 3.727-0.855l1.687-5.898c-1.145 0.37-2.244 0.557-3.271 0.557-1.874 0-3.186-0.607-4.014-1.19zM5.719 7.203c1.506 0.016 2.62 0.59 3.543 1.182l1.812-6.198c-0.382-0.219-1.383-0.764-2.107-0.949-0.476-0.111-0.977-0.168-1.508-0.168-1.012 0.019-2.117 0.272-3.377 0.777l-1.727 6.066c1.266-0.477 2.356-0.71 3.361-0.71 0.001 0 0.003 0 0.003 0zM20 3.87c-1.149 0.446-2.27 0.673-3.34 0.673-1.791 0-3.111-0.621-3.967-1.218l-1.796 6.216c1.206 0.776 2.506 1.169 3.87 1.169 1.112 0 2.264-0.267 3.427-0.795l-0.004-0.043 0.073-0.017 1.737-5.985z"/></g></svg>
	<svg viewBox="0 0 20 20"><g class="icon" id="icon-windows8"><path d="M0.007 10l-0.007-6.095 7.5-1.018v7.114zM8.75 2.705l9.998-1.455v8.75h-9.998zM18.75 11.25l-0.002 8.75-9.998-1.407v-7.343zM7.5 18.434l-7.494-1.027-0-6.157h7.494z"/></g></svg>
	<svg viewBox="0 0 20 20"><g class="icon" id="icon-youtube"><path d="M19.801 6c0 0-0.195-1.379-0.797-1.984-0.762-0.797-1.613-0.801-2.004-0.848-2.797-0.203-6.996-0.203-6.996-0.203h-0.008c0 0-4.199 0-6.996 0.203-0.391 0.047-1.242 0.051-2.004 0.848-0.602 0.605-0.793 1.984-0.793 1.984s-0.199 1.617-0.199 3.238v1.516c0 1.617 0.199 3.238 0.199 3.238s0.195 1.379 0.793 1.984c0.762 0.797 1.762 0.77 2.207 0.855 1.602 0.152 6.801 0.199 6.801 0.199s4.203-0.008 7-0.207c0.391-0.047 1.242-0.051 2.004-0.848 0.602-0.605 0.797-1.984 0.797-1.984s0.199-1.617 0.199-3.238v-1.516c-0.004-1.617-0.203-3.238-0.203-3.238zM7.934 12.594v-5.621l5.402 2.82-5.402 2.801z"/></g></svg>

</svg>